<svg width="32" height="32" viewBox="0 0 32 32" fill="none" xmlns="http://www.w3.org/2000/svg">
<g clip-path="url(#clip0_8_15)">
<g filter="url(#filter0_d_8_15)">
<path d="M22 6.66667C20 6.66667 18.1067 7.88 17.3333 9.6V23.6533C23 18.4933 26.6667 14.9333 26.6667 11.3333C26.6667 8.66667 24.6667 6.66667 22 6.66667ZM22 4C26.1067 4 29.3333 7.21333 29.3333 11.3333C29.3333 16.36 24.8 20.48 17.9333 26.7067L16 28.4667L14.0667 26.7067C7.20001 20.48 2.66667 16.36 2.66667 11.3333C2.66667 7.21333 5.89334 4 10 4C12.32 4 14.5467 5.08 16 6.77333C17.4533 5.08 19.68 4 22 4Z" fill="white"/>
</g>
</g>
<defs>
<filter id="filter0_d_8_15" x="-0.333328" y="2" width="34.6667" height="32.4667" filterUnits="userSpaceOnUse" color-interpolation-filters="sRGB">
<feFlood flood-opacity="0" result="BackgroundImageFix"/>
<feColorMatrix in="SourceAlpha" type="matrix" values="0 0 0 0 0 0 0 0 0 0 0 0 0 0 0 0 0 0 127 0" result="hardAlpha"/>
<feOffset dx="1" dy="2"/>
<feGaussianBlur stdDeviation="2"/>
<feComposite in2="hardAlpha" operator="out"/>
<feColorMatrix type="matrix" values="0 0 0 0 0 0 0 0 0 0 0 0 0 0 0 0 0 0 0.25 0"/>
<feBlend mode="normal" in2="BackgroundImageFix" result="effect1_dropShadow_8_15"/>
<feBlend mode="normal" in="SourceGraphic" in2="effect1_dropShadow_8_15" result="shape"/>
</filter>
<clipPath id="clip0_8_15">
<rect width="32" height="32" fill="white"/>
</clipPath>
</defs>
</svg>
