<svg width="32" height="32" viewBox="0 0 32 32" fill="none" xmlns="http://www.w3.org/2000/svg">
<g clip-path="url(#clip0_8_17)">
<g filter="url(#filter0_d_8_17)">
<path d="M16.1333 24.7333L16 24.8667L15.8533 24.7333C9.52 18.9867 5.33333 15.1867 5.33333 11.3333C5.33333 8.66667 7.33333 6.66667 10 6.66667C12.0533 6.66667 14.0533 8 14.76 9.81333H17.24C17.9467 8 19.9467 6.66667 22 6.66667C24.6667 6.66667 26.6667 8.66667 26.6667 11.3333C26.6667 15.1867 22.48 18.9867 16.1333 24.7333ZM22 4C19.68 4 17.4533 5.08 16 6.77333C14.5467 5.08 12.32 4 10 4C5.89333 4 2.66667 7.21333 2.66667 11.3333C2.66667 16.36 7.2 20.48 14.0667 26.7067L16 28.4667L17.9333 26.7067C24.8 20.48 29.3333 16.36 29.3333 11.3333C29.3333 7.21333 26.1067 4 22 4Z" fill="white"/>
</g>
</g>
<defs>
<filter id="filter0_d_8_17" x="-1.33333" y="1" width="34.6667" height="32.4667" filterUnits="userSpaceOnUse" color-interpolation-filters="sRGB">
<feFlood flood-opacity="0" result="BackgroundImageFix"/>
<feColorMatrix in="SourceAlpha" type="matrix" values="0 0 0 0 0 0 0 0 0 0 0 0 0 0 0 0 0 0 127 0" result="hardAlpha"/>
<feOffset dy="1"/>
<feGaussianBlur stdDeviation="2"/>
<feComposite in2="hardAlpha" operator="out"/>
<feColorMatrix type="matrix" values="0 0 0 0 0 0 0 0 0 0 0 0 0 0 0 0 0 0 0.25 0"/>
<feBlend mode="normal" in2="BackgroundImageFix" result="effect1_dropShadow_8_17"/>
<feBlend mode="normal" in="SourceGraphic" in2="effect1_dropShadow_8_17" result="shape"/>
</filter>
<clipPath id="clip0_8_17">
<rect width="32" height="32" fill="white"/>
</clipPath>
</defs>
</svg>
