<svg width="36" height="36" viewBox="0 0 36 36" fill="none" xmlns="http://www.w3.org/2000/svg">
<g clip-path="url(#clip0_8_19)" filter="url(#filter0_d_8_19)">
<g filter="url(#filter1_d_8_19)">
<path d="M4.5 11.5C4.5 15.325 6.7125 19.25 11.075 23.175C13.056 24.9559 15.2129 26.5306 17.5125 27.875C17.6619 27.9571 17.8296 28.0001 18 28.0001C18.1704 28.0001 18.3381 27.9571 18.4875 27.875C19.025 27.575 31.5 20.4875 31.5 11.5C31.5 9.92588 31.0047 8.39166 30.0843 7.11467C29.1639 5.83768 27.865 4.88266 26.3717 4.38488C24.8784 3.8871 23.2663 3.8718 21.7637 4.34115C20.2612 4.8105 18.9445 5.74071 18 7C17.0555 5.74071 15.7388 4.8105 14.2363 4.34115C12.7337 3.8718 11.1216 3.8871 9.62829 4.38488C8.13495 4.88266 6.83609 5.83768 5.91568 7.11467C4.99528 8.39166 4.5 9.92588 4.5 11.5Z" fill="white"/>
</g>
</g>
<defs>
<filter id="filter0_d_8_19" x="-2" y="0" width="40" height="40" filterUnits="userSpaceOnUse" color-interpolation-filters="sRGB">
<feFlood flood-opacity="0" result="BackgroundImageFix"/>
<feColorMatrix in="SourceAlpha" type="matrix" values="0 0 0 0 0 0 0 0 0 0 0 0 0 0 0 0 0 0 127 0" result="hardAlpha"/>
<feOffset dy="4"/>
<feGaussianBlur stdDeviation="2"/>
<feComposite in2="hardAlpha" operator="out"/>
<feColorMatrix type="matrix" values="0 0 0 0 0 0 0 0 0 0 0 0 0 0 0 0 0 0 0.25 0"/>
<feBlend mode="normal" in2="BackgroundImageFix" result="effect1_dropShadow_8_19"/>
<feBlend mode="normal" in="SourceGraphic" in2="effect1_dropShadow_8_19" result="shape"/>
</filter>
<filter id="filter1_d_8_19" x="3.5" y="4" width="31" height="28.0001" filterUnits="userSpaceOnUse" color-interpolation-filters="sRGB">
<feFlood flood-opacity="0" result="BackgroundImageFix"/>
<feColorMatrix in="SourceAlpha" type="matrix" values="0 0 0 0 0 0 0 0 0 0 0 0 0 0 0 0 0 0 127 0" result="hardAlpha"/>
<feOffset dx="1" dy="2"/>
<feGaussianBlur stdDeviation="1"/>
<feComposite in2="hardAlpha" operator="out"/>
<feColorMatrix type="matrix" values="0 0 0 0 0 0 0 0 0 0 0 0 0 0 0 0 0 0 0.25 0"/>
<feBlend mode="normal" in2="BackgroundImageFix" result="effect1_dropShadow_8_19"/>
<feBlend mode="normal" in="SourceGraphic" in2="effect1_dropShadow_8_19" result="shape"/>
</filter>
<clipPath id="clip0_8_19">
<rect width="32" height="32" fill="white" transform="matrix(-1 0 0 1 34 0)"/>
</clipPath>
</defs>
</svg>
